<?xml version="1.0" encoding="UTF-8"?>
<!-- Generated by Pixelmator Pro 3.6.14 -->
<svg width="128" height="92" viewBox="0 0 128 92" xmlns="http://www.w3.org/2000/svg">
    <g id="Group">
        <path id="Path" fill="#ffffff" stroke="none" d="M 130.815994 0 L 130.815994 92 C 130.815994 92 111.744003 79.094444 83.455994 79.094444 C 60.672001 79.094444 12.8 82.92778 0 20.444443 C 0 20.444443 8.704 27.983337 26.496 27.983337 C 55.296001 28.111111 64.639999 0 130.815994 0 Z"/>
        <path id="path1" fill="#cf2036" stroke="none" d="M 95.104004 12.266663 C 96.384003 12.138885 98.687996 12.011116 100.608002 11.883331 C 99.327995 13.672226 98.175995 15.461105 97.279999 17.377777 L 91.647995 17.888885 L 89.855995 13.033333 C 91.007996 11.5 92.287994 9.966667 93.695999 8.561104 C 94.208 9.838882 94.720001 11.244446 95.104004 12.266663 Z M 94.335999 70.405556 L 100.224007 69.894447 L 101.375999 63.761112 C 99.839996 61.716667 98.431999 59.544441 97.279999 57.244442 C 96.895996 59.16111 96.255997 63.122223 95.872002 65.166664 C 94.464005 65.294441 92.032005 65.550003 90.112 65.67778 C 91.264008 67.33889 92.800003 69 94.335999 70.405556 Z M 93.824005 26.066666 C 94.464005 23.894447 95.104004 21.849998 96 19.805557 C 93.952003 20.57222 91.007996 21.594444 89.472 22.105553 C 88.704002 21.083336 87.552002 19.422226 86.400002 17.888885 C 85.375999 19.549995 84.608002 21.33889 83.839996 23.255554 L 87.424004 28.366669 L 93.824005 26.066666 Z M 92.928001 61.077774 L 96 54.688889 C 94.975998 52.388889 94.208 50.08889 93.568001 47.66111 C 92.800003 49.194443 90.879997 53.41111 89.984001 55.327778 C 88.447998 55.07222 85.760002 54.561111 83.712006 54.305557 C 84.480003 56.349998 85.375999 58.138889 86.272003 60.055557 L 92.928001 61.077774 Z M 81.024002 35.011112 L 86.400002 39.483334 L 92.287994 35.394444 C 92.415993 33.094448 92.672005 30.666668 93.184006 28.494442 C 91.519997 29.644444 88.32 31.816669 86.655998 32.966667 C 85.504005 32.07222 83.584007 30.41111 81.919998 29.133331 C 81.536003 31.049999 81.279999 33.094448 81.024002 35.011112 Z M 130.815994 32.07222 L 130.815994 0 C 118.400002 0 108.160004 1.022224 99.199997 2.555557 C 114.047997 6.005554 126.208 17.122223 130.815994 32.07222 Z M 93.056 45.233334 C 92.928001 44.849998 92.928001 44.466667 92.800003 44.211109 C 92.415993 42.166668 92.287994 40.122223 92.287994 38.077778 C 91.135994 39.355553 88.192001 42.933331 86.784004 44.594448 C 85.375999 43.955559 82.815994 42.805557 80.896004 41.91111 L 81.279999 46.127777 L 81.664001 48.044441 L 88.192001 50.983334 L 93.056 45.233334 Z M 46.592003 51.494442 C 44.672001 39.866669 47.743999 28.494442 54.143997 19.549995 C 45.056 24.405556 36.992001 28.111111 26.496 28.111111 C 8.576 28.111111 0 20.57222 0 20.57222 C 9.6 67.466667 39.040001 76.922226 62.720001 78.83889 C 54.400002 72.32222 48.383999 62.738888 46.592003 51.494442 Z M 67.456001 58.266666 C 67.967995 56.094448 68.223999 53.794441 68.223999 51.622223 L 64.384003 47.533333 L 58.624001 50.472221 C 58.624001 52.516666 58.367996 54.561111 58.112003 56.605556 C 59.903999 55.711109 62.080002 54.561111 63.232002 53.922222 C 64.256004 55.07222 66.047997 56.861111 67.456001 58.266666 Z M 103.295998 66.061111 C 103.424004 68.233337 103.68 71.300003 103.935997 72.961105 C 102.912003 73.344444 101.120003 73.983337 99.455994 74.622223 C 101.248001 75.900002 103.167999 77.050003 105.215996 77.944443 L 109.312004 76.41111 L 108.928001 71.300003 C 106.879997 69.766663 105.087997 67.977783 103.295998 66.061111 Z M 109.695999 82.92778 C 122.879997 86.761116 130.815994 92 130.815994 92 L 130.815994 57.372223 C 127.487999 68.233337 119.807999 77.433334 109.695999 82.92778 Z M 63.360001 69.766663 C 64.384003 67.849998 65.279999 65.805557 65.919998 63.633331 L 63.487999 59.033333 L 57.472 60.438889 C 56.959999 62.355553 56.447998 64.272217 55.68 66.188889 C 57.472 65.805557 59.647999 65.294441 60.799999 65.038895 C 61.439999 66.061111 62.464001 67.977783 63.360001 69.766663 Z M 62.976002 42.67778 C 64.256004 43.444443 66.431999 44.849998 68.223999 45.872223 L 68.223999 45.616669 C 67.967995 43.444443 67.584 41.272221 67.071999 39.099998 L 62.336002 36.16111 L 57.599998 40.505558 C 57.983997 42.422222 58.367996 44.33889 58.624001 46.255558 L 58.624001 46.638889 C 60.032001 45.361111 61.823997 43.700001 62.976002 42.67778 Z M 56.447998 36.799999 C 57.472 35.138889 58.880001 33.094448 59.52 31.944443 C 60.799999 32.327778 63.232002 33.094448 65.152 33.605553 C 64.256004 31.433331 63.232002 29.261112 61.952003 27.216667 L 57.216 25.811111 L 53.887997 30.922222 C 55.040001 32.83889 55.807999 34.755558 56.447998 36.799999 Z"/>
    </g>
</svg>
