<svg fill="none" height="149" viewBox="0 0 268 149" width="268" xmlns="http://www.w3.org/2000/svg" xmlns:xlink="http://www.w3.org/1999/xlink"><clipPath id="a"><path d="m0 0h268v149h-268z"/></clipPath><clipPath id="b"><path d="m1 1h266v147.563h-266z"/></clipPath><g clip-path="url(#a)"><g clip-path="url(#b)"><path d="m244.864 1h-221.6913c-5.9345 0-11.505 2.27553-15.7102 6.38968-4.18697 4.16872-6.4625 9.75742-6.4625 15.81942v98.9039c0 6.043 2.29373 11.65 6.44429 15.746 4.22341 4.187 9.81211 6.499 15.74661 6.499h221.6911c12.215 0 22.136-9.976 22.136-22.264v-98.9031c0-6.0074-2.312-11.6143-6.48-15.76481-4.206-4.15056-9.758-6.42609-15.674-6.42609z" fill="#fff"/><path d="m259.21 23.1908c0-3.8411-1.457-7.5366-4.187-10.249-2.731-2.7124-6.372-4.15057-10.158-4.15057h-117.8l35.553 59.38217 3.277.4187 1.984 2.7124v2.5304l2.239.4733 2.039 2.8217v2.4393l2.33.4005 2.33 2.5486v5.5887s5.025 4.6057 9.466 6.3533c3.15 1.2196 3.478 6.1897 5.371 8.9017 2.366 3.896 5.607 5.461 4.915 7.646-1.584 5.843-7.555 15.656-13.125 16.129h-22.009v9.43h83.393c7.937 0 14.345-6.481 14.345-14.473v-98.9032" fill="#00278c"/><path d="m51.8067 127.228h-10.6676c-.0911-26.597 8.9928-41.3237 19.7697-44.2546 1.4746-.2731.7646-7.5365-1.1104-9.7575 0 0-5.2246.0729-6.3351-.0728-1.3653-.3823-.4187-1.875-.4187-1.875l5.0426-10.7769-.6918-2.9491h-18.5501l15.328-10.7041c.7099-28.2529 29.6911-30.4556 47.1667-18.7685 10.377 6.863 11.178 20.4797 10.377 29.8913-.128.6008-2.694.2003-2.694.2003s-1.766 10.3218 2.839 10.3218h20.389c8.319-.3277 16.329 5.2974 16.329 5.2974l1.966-7.1179-44.636-57.87117h-82.7385c-3.8411 0-7.5001 1.45637-10.2672 4.16877-2.7124 2.7124-4.13233 6.4079-4.13233 10.249v98.903c0 3.878 1.40173 7.519 4.13233 10.213 2.7671 2.749 6.4261 4.26 10.2672 4.26h34.1147c-2.2027-3.787-4.7149-8.083-5.4795-9.339" fill="#006cff"/><g fill="#fff"><path d="m179.129 31.3646 9.247-6.6992h-11.414l-3.531-10.8679-3.532 10.8679h-11.414l9.23 6.6992-3.532 10.8679 9.248-6.7174 9.229 6.7174z"/><path d="m199.462 59.7991 9.248-6.7174h-11.432l-3.514-10.8497-3.531 10.8497h-11.433l9.248 6.7174-3.532 10.8497 9.248-6.6992 9.23 6.6992z"/><path d="m220.234 88.2161 9.23-6.6991h-11.414l-3.532-10.868-3.532 10.868h-11.414l9.248 6.6991-3.532 10.8497 9.23-6.6991 9.248 6.6991z"/><path d="m239.73 116.633 9.248-6.699h-11.432l-3.514-10.8679-3.531 10.8679h-11.432l9.247 6.699-3.531 10.868 9.247-6.717 9.23 6.717z"/></g><path d="m264.524 144.413-1.074 2.712-1.056-2.712h-1.202v4.132h.747l-.037-3.277 1.184 3.277h.6l1.165-3.277-.018 3.277h.892v-4.132z" fill="#00278c"/><path d="m257.516 145.104h1.183v3.459h.892v-3.459h1.184v-.691h-3.259z" fill="#00278c"/></g></g></svg>